<svg xmlns="http://www.w3.org/2000/svg" viewBox="0 0 50 50" fill="#ffffff">
  <path d="M49.988281 12.9375C49.980469 12.84375 49.964844 12.753906 49.933594 12.667969C49.917969 12.628906 49.902344 12.59375 49.886719 12.558594C49.851563 12.488281 49.804688 12.421875 49.75 12.359375C49.726563 12.328125 49.703125 12.300781 49.679688 12.273438C49.667969 12.261719 49.660156 12.25 49.648438 12.238281L35.648438 0.238281C35.46875 0.0859375 35.238281 0 35 0L1 0C0.984375 0 0.96875 0.0078125 0.953125 0.0078125C0.902344 0.0078125 0.855469 0.0195313 0.808594 0.0273438C0.757813 0.0390625 0.710938 0.046875 0.664063 0.0664063C0.648438 0.0703125 0.632813 0.0703125 0.617188 0.0742188C0.585938 0.0898438 0.5625 0.109375 0.535156 0.125C0.492188 0.148438 0.445313 0.171875 0.40625 0.203125C0.367188 0.230469 0.332031 0.265625 0.300781 0.300781C0.265625 0.332031 0.230469 0.367188 0.203125 0.40625C0.171875 0.445313 0.148438 0.488281 0.125 0.535156C0.109375 0.5625 0.0898438 0.585938 0.0742188 0.617188C0.0703125 0.632813 0.0703125 0.648438 0.0664063 0.664063C0.046875 0.710938 0.0390625 0.757813 0.0273438 0.808594C0.0195313 0.855469 0.0078125 0.902344 0.0078125 0.953125C0.0078125 0.96875 0 0.984375 0 1L0 35C0 35.238281 0.0859375 35.46875 0.242188 35.648438L12.242188 49.648438C12.25 49.660156 12.261719 49.664063 12.269531 49.671875C12.339844 49.746094 12.425781 49.804688 12.515625 49.855469C12.546875 49.875 12.566406 49.898438 12.597656 49.914063C12.722656 49.96875 12.855469 50 13 50L49 50C49.554688 50 50 49.554688 50 49L50 13C50 12.976563 49.988281 12.960938 49.988281 12.9375 Z M 34.628906 2L46.296875 12L13.414063 12L3.414063 2 Z M 2 3.414063L12 13.414063L12 46.296875L2 34.628906Z" fill="#FFFFFF" />
</svg>