<svg xmlns="http://www.w3.org/2000/svg" viewBox="0 0 50 50">
  <path d="M40.78125 1.25C40.332031 1.3125 39.886719 1.511719 39.53125 1.8125L11.4375 26.25L24.96875 39.78125L49.40625 11.65625C50.222656 10.695313 50.195313 9.261719 49.3125 8.375L42.84375 1.90625C42.3125 1.375 41.527344 1.144531 40.78125 1.25 Z M 9.96875 27.59375L6.59375 30.96875C5.507813 32.058594 5.914063 33.359375 6.21875 34.3125L6.40625 34.90625C6.835938 36.308594 7.3125 37.855469 5.90625 39.71875L11.5 45.34375C12.308594 44.78125 13.210938 44.5 14.21875 44.5C15.058594 44.5 15.816406 44.679688 16.3125 44.8125L16.5625 44.90625C16.742188 44.949219 16.921875 44.980469 17.09375 45.03125C17.5625 45.167969 18.046875 45.3125 18.5625 45.3125C19.214844 45.3125 19.792969 45.082031 20.25 44.625L23.625 41.25 Z M 4.53125 41.1875L0.28125 45.4375C0.03125 45.6875 -0.0546875 46.03125 0.03125 46.375C0.117188 46.71875 0.378906 46.992188 0.71875 47.09375L7 48.96875C7.09375 48.996094 7.1875 49 7.28125 49C7.542969 49 7.808594 48.910156 8 48.71875L10.03125 46.6875Z" fill="#000000" />
</svg>