<?xml version="1.0" encoding="utf-8"?>
<svg xmlns="http://www.w3.org/2000/svg" viewBox="0 0 30 30" fill="#000000"><path d="M 15 3 A 1 1 0 0 0 14.078125 3.6113281 L 14.076172 3.6113281 C 14.076172 3.6113281 12.191578 7.930375 12.017578 12.359375 C 12.750578 11.532375 13.808 11 15 11 C 16.192 11 17.249422 11.532375 17.982422 12.359375 C 17.808422 7.930375 15.923828 3.6113281 15.923828 3.6113281 L 15.919922 3.6113281 A 1 1 0 0 0 15 3 z M 15 13 A 2 2 0 0 0 13 15 A 2 2 0 0 0 15 17 A 2 2 0 0 0 17 15 A 2 2 0 0 0 15 13 z M 11.220703 13.736328 C 7.4727031 16.101328 4.6738281 19.894531 4.6738281 19.894531 L 4.6757812 19.898438 A 1 1 0 0 0 4.4746094 20.5 A 1 1 0 0 0 5.4746094 21.5 A 1 1 0 0 0 5.5957031 21.492188 L 5.5976562 21.494141 C 5.5976562 21.494141 10.281125 20.968297 14.203125 18.904297 C 13.121125 18.683297 12.131156 18.032 11.535156 17 C 10.939156 15.968 10.870703 14.785328 11.220703 13.736328 z M 18.777344 13.736328 C 19.128344 14.785328 19.060844 15.968 18.464844 17 C 17.868844 18.032 16.879875 18.683297 15.796875 18.904297 C 19.718875 20.968297 24.400391 21.494141 24.400391 21.494141 L 24.402344 21.490234 A 1 1 0 0 0 24.525391 21.5 A 1 1 0 0 0 25.525391 20.5 A 1 1 0 0 0 25.322266 19.898438 L 25.324219 19.894531 C 25.324219 19.894531 22.526344 16.101328 18.777344 13.736328 z M 14.984375 20.986328 A 1.0001 1.0001 0 0 0 14 22 L 13.285156 27 L 14.832031 27 A 1.0001 1.0001 0 0 0 15.158203 27 L 16.714844 27 L 16 22 A 1.0001 1.0001 0 0 0 14.984375 20.986328 z" fill="#000000"/></svg>
