<?xml version="1.0" encoding="utf-8"?>
<svg xmlns="http://www.w3.org/2000/svg" viewBox="0 0 30 30" fill="#000000"><path d="M 22.628906 3.0039062 C 22.080406 2.9710312 21.521547 3.1316406 21.060547 3.4941406 L 9.5449219 12.535156 C 9.0729219 12.905156 9.029125 13.605297 9.453125 14.029297 L 15.970703 20.546875 C 16.394703 20.970875 17.093844 20.927078 17.464844 20.455078 L 26.505859 8.9394531 C 27.229859 8.0174531 27.149312 6.6991406 26.320312 5.8691406 L 24.130859 3.6796875 C 23.715859 3.2646875 23.177406 3.0367813 22.628906 3.0039062 z M 7.2617188 15.089844 C 7.0055938 15.089969 6.7496875 15.187313 6.5546875 15.382812 L 6.03125 15.904297 C 5.55225 16.383297 5.5002344 17.18925 5.9902344 17.65625 C 7.0172344 18.63625 7.03025 20.280297 6.03125 21.279297 L 8.7207031 23.96875 C 9.7197031 22.96875 11.364703 22.982719 12.345703 24.011719 C 12.812703 24.501719 13.616703 24.44775 14.095703 23.96875 L 14.617188 23.445312 C 15.008188 23.054312 15.007188 22.42125 14.617188 22.03125 L 7.96875 15.382812 C 7.77325 15.187813 7.5178437 15.089719 7.2617188 15.089844 z M 4.8242188 22.896484 L 2.9453125 24.775391 L 6.0292969 26.359375 L 7.1582031 25.230469 L 4.8242188 22.896484 z" fill="#000000"/></svg>
